{"title":"Bridget.Joness.Baby.2016.CAM.READ.NFO.XViD-VAiN","uid":15864038,"size":1545905566,"categoryP":"video","categoryS":"movies","magnet":"?xt=urn:btih:f9338cbf05ba09a35dd2ac3e3c0daa2ea6e00fe6&amp;dn=Bridget.Joness.Baby.2016.CAM.READ.NFO.XViD-VAiN&amp;tr=udp%3A%2F%2Ftracker.leechers-paradise.org%3A6969&amp;tr=udp%3A%2F%2Fzer0day.ch%3A1337&amp;tr=udp%3A%2F%2Fopen.demonii.com%3A1337&amp;tr=udp%3A%2F%2Ftracker.coppersurfer.tk%3A6969&amp;tr=udp%3A%2F%2Fexodus.desync.com%3A6969","seeders":23,"leechers":14,"uploader":"makintos13","files":3,"time":1474339785,"description":"Bridget Joness Baby 2016 CAM READ NFO XViD-VAiN\r\n\r\nScreens:\r\n \nhttps://imgmak.com/aQi\r\n \nhttps://imgmak.com/aQj\r\n \nhttps://imgmak.com/aQw\r\n \nhttps://imgmak.com/aQJ\r\n\r\nP R E S E N T S . . . .\r\n\r\nBridget.Joness.Baby.2016.CAM.READ.NFO.XViD-VAiN\r\n\r\niMDB........: http://www.imdb.com/title/tt1473832/\r\n\r\n\r\n\r\nT E C H N i C A L . i N F O . . .\r\n\r\nBasic Information\r\nFormat : AVI\r\nFormat/Info : Audio Video Interleave\r\nFile size : 1.42 GiB\r\nDuration : 1 h 53 min\r\nOverall bit rate : 1 789 kb/s\r\nWriting application : VirtualDubMod 1.5.10.2 (build 2540/release)\r\nWriting library : VirtualDubMod build 2540/release\r\n\r\nVideo\r\nID : 0\r\nFormat : MPEG-4 Visual\r\nFormat profile : Advanced   \r\nFormat settings, BVOP : 2\r\nFormat settings, QPel : No\r\nFormat settings, GMC : No warppoints\r\nFormat settings, Matrix : Default (H.263)\r\nMuxing mode : Packed bitstream\r\nCodec ID : XVID\r\nCodec ID/Hint : XviD\r\nDuration : 1 h 53 min\r\nBit rate : 1 585 kb/s\r\nWidth : 720 pixels\r\nHeight : 304 pixels\r\nDisplay aspect ratio : 2.35:1\r\nFrame rate : 29.970 (30000/1001) FPS\r\nColor space : YUV\r\nChroma subsampling : 4:2:0\r\nBit depth : 8 bits\r\nScan type : Progressive\r\nCompression mode : Lossy\r\nBits/(Pixel*Frame) : 0.242\r\nStream size : 1.26 GiB (89%)\r\nWriting library : XviD 64\r\n\r\nAudio\r\nID : 1\r\nFormat : MPEG Audio\r\nFormat version : Version 1\r\nFormat profile : Layer 3\r\nMode : Joint stereo\r\nMode extension : MS Stereo\r\nCodec ID : 55\r\nCodec ID/Hint : MP3\r\nDuration : 1 h 53 min\r\nBit rate mode : Constant\r\nBit rate : 192 kb/s\r\nChannel(s) : 2 channels\r\nSampling rate : 48.0 kHz\r\nCompression mode : Lossy\r\nStream size : 156 MiB (11%)\r\nAlignment : Aligned on interleaves\r\nInterleave, duration : 33 ms (1.00 video frame)\r\nInterleave, preload duratio : 504 ms","torrent":{"xt":"urn:btih:f9338cbf05ba09a35dd2ac3e3c0daa2ea6e00fe6","amp;dn":"Bridget.Joness.Baby.2016.CAM.READ.NFO.XViD-VAiN","amp;tr":["udp%3A%2F%2Ftracker.leechers-paradise.org%3A6969","udp%3A%2F%2Fzer0day.ch%3A1337","udp%3A%2F%2Fopen.demonii.com%3A1337","udp%3A%2F%2Ftracker.coppersurfer.tk%3A6969","udp%3A%2F%2Fexodus.desync.com%3A6969"],"infoHash":"f9338cbf05ba09a35dd2ac3e3c0daa2ea6e00fe6","infoHashBuffer":{"type":"Buffer","data":[249,51,140,191,5,186,9,163,93,210,172,62,60,13,170,46,166,224,15,230]},"announce":[],"urlList":[]}}